<svg width="36" height="24" viewBox="0 0 36 24" fill="none" xmlns="http://www.w3.org/2000/svg">
<path d="M9.57614 0.220832C9.82472 0.379023 10.0168 0.492016 10.1524 0.559812C10.288 0.627608 10.4801 0.718002 10.7287 0.830996C10.9999 0.943989 11.384 1.13608 11.8812 1.40726C12.401 1.65585 13.158 2.05132 14.1524 2.59369C14.8755 2.97787 15.2371 3.29425 15.2371 3.54283C15.2371 3.63323 15.2032 3.72362 15.1354 3.81402C14.48 4.83096 13.7908 5.90439 13.0676 7.03433C12.3671 8.14166 11.6891 9.27159 11.0337 10.4241L13.9151 10.458C14.3219 10.458 14.706 10.4693 15.0676 10.4919C15.4292 10.4919 15.61 10.5936 15.61 10.797V10.8648C15.497 12.1529 15.4066 13.0908 15.3388 13.6783C15.2936 14.2659 15.2597 14.684 15.2371 14.9326C15.2145 15.1811 15.1919 15.3619 15.1693 15.4749C15.1693 15.5653 15.158 15.7687 15.1354 16.0851C15.1128 16.4015 15.0676 16.9212 14.9998 17.6444C14.9546 18.3676 14.8755 19.4636 14.7625 20.9325C14.6947 21.6783 14.6043 22.198 14.4913 22.4918C14.4009 22.7856 14.1637 22.9551 13.7795 23.0003C12.7625 23.0003 11.7004 23.0116 10.5931 23.0342C9.48574 23.0342 8.37841 23.0455 7.27107 23.0681C6.18634 23.0681 5.1016 23.0681 4.01686 23.0681C2.93213 23.0681 1.90389 23.0681 0.932148 23.0681C0.547971 23.0681 0.355882 22.7969 0.355882 22.2545L0.966046 13.9834C1.03384 13.4636 1.09034 13.0343 1.13554 12.6953C1.20333 12.3563 1.25983 12.0512 1.30503 11.78C1.37282 11.4863 1.44062 11.2038 1.50841 10.9326C1.59881 10.6614 1.7005 10.345 1.8135 9.98345C1.94909 9.66707 2.17507 9.2603 2.49146 8.76313C2.80784 8.24336 3.15812 7.68969 3.54229 7.10212C3.94907 6.51456 4.36714 5.91569 4.79652 5.30553C5.22589 4.69537 5.63267 4.1304 6.01685 3.61063C6.42362 3.06826 6.7739 2.61629 7.06768 2.25471C7.36147 1.87053 7.56485 1.61065 7.67785 1.47506C7.74564 1.40726 7.82474 1.29427 7.91513 1.13608C8.02813 0.977887 8.14112 0.830996 8.25411 0.695404C8.38971 0.537213 8.5366 0.401621 8.69479 0.288628C8.85298 0.175635 9.02247 0.119138 9.20326 0.119138C9.31625 0.119138 9.44054 0.153036 9.57614 0.220832ZM29.0336 0.220832C29.2822 0.379023 29.4743 0.492016 29.6098 0.559812C29.7454 0.627608 29.9375 0.718002 30.1861 0.830996C30.4573 0.943989 30.8415 1.13608 31.3386 1.40726C31.8584 1.65585 32.6155 2.05132 33.6098 2.59369C34.333 2.97787 34.6945 3.29425 34.6945 3.54283C34.6945 3.63323 34.6606 3.72362 34.5929 3.81402C33.9375 4.83096 33.2482 5.90439 32.5251 7.03433C31.8245 8.14166 31.1466 9.27159 30.4912 10.4241L33.3725 10.458C33.7793 10.458 34.1635 10.4693 34.5251 10.4919C34.8866 10.4919 35.0674 10.5936 35.0674 10.797V10.8648C34.9544 12.1529 34.864 13.0908 34.7962 13.6783C34.751 14.2659 34.7171 14.684 34.6945 14.9326C34.6719 15.1811 34.6493 15.3619 34.6267 15.4749C34.6267 15.5653 34.6154 15.7687 34.5929 16.0851C34.5703 16.4015 34.5251 16.9212 34.4573 17.6444C34.4121 18.3676 34.333 19.4636 34.22 20.9325C34.1522 21.6783 34.0618 22.198 33.9488 22.4918C33.8584 22.7856 33.6211 22.9551 33.2369 23.0003C32.22 23.0003 31.1579 23.0116 30.0505 23.0342C28.9432 23.0342 27.8359 23.0455 26.7285 23.0681C25.6438 23.0681 24.559 23.0681 23.4743 23.0681C22.3896 23.0681 21.3613 23.0681 20.3896 23.0681C20.0054 23.0681 19.8133 22.7969 19.8133 22.2545L20.4235 13.9834C20.4913 13.4636 20.5478 13.0343 20.593 12.6953C20.6608 12.3563 20.7173 12.0512 20.7625 11.78C20.8303 11.4863 20.8981 11.2038 20.9659 10.9326C21.0563 10.6614 21.1579 10.345 21.2709 9.98345C21.4065 9.66707 21.6325 9.2603 21.9489 8.76313C22.2653 8.24336 22.6156 7.68969 22.9997 7.10212C23.4065 6.51456 23.8246 5.91569 24.254 5.30553C24.6833 4.69537 25.0901 4.1304 25.4743 3.61063C25.8811 3.06826 26.2313 2.61629 26.5251 2.25471C26.8189 1.87053 27.0223 1.61065 27.1353 1.47506C27.2031 1.40726 27.2822 1.29427 27.3726 1.13608C27.4856 0.977887 27.5986 0.830996 27.7116 0.695404C27.8472 0.537213 27.994 0.401621 28.1522 0.288628C28.3104 0.175635 28.4799 0.119138 28.6607 0.119138C28.7737 0.119138 28.898 0.153036 29.0336 0.220832Z" fill="#008181"/>
</svg>
