<svg width="397" height="444" viewBox="0 0 397 444" fill="none" xmlns="http://www.w3.org/2000/svg">
<path fill-rule="evenodd" clip-rule="evenodd" d="M187.518 13.2533C175.968 20.6093 162.018 29.4483 156.518 32.8963C151.018 36.3443 143.593 41.0493 140.018 43.3513C136.443 45.6543 123.393 53.9383 111.018 61.7613C98.643 69.5843 68.606 88.6193 44.268 104.061L0.018 132.137V182.233V232.328L5.373 235.225L10.728 238.121L19.623 232.437C24.515 229.311 40.893 218.918 56.018 209.342C71.143 199.766 86.668 189.921 90.518 187.463C103.421 179.225 163.345 141.244 179.29 131.197C187.965 125.73 198.693 118.896 203.13 116.008C207.567 113.121 211.779 110.758 212.49 110.758C213.201 110.758 221.373 115.53 230.65 121.363C239.927 127.196 252.468 135.009 258.518 138.725C264.568 142.441 278.898 151.394 290.363 158.62C309.554 170.715 311.578 171.754 315.863 171.702C320.121 171.651 322.562 170.336 344.518 156.27C357.718 147.813 374.706 136.962 382.268 132.156L396.018 123.418V116.576V109.733L390.768 106.386C385.845 103.249 307.214 55.2463 257.018 24.7363C244.643 17.2143 230.34 8.51733 225.233 5.40933C211.906 -2.70167 212.893 -2.90667 187.518 13.2533ZM269.297 53.0953C300.218 71.9803 336.184 93.9183 349.221 101.845C367.177 112.764 372.632 116.531 371.721 117.385C371.059 118.005 362.868 123.366 353.518 129.299C344.168 135.232 333.593 141.969 330.018 144.27C326.443 146.572 321.667 149.51 319.404 150.8L315.291 153.146L287.404 135.742C272.067 126.17 250.326 112.583 239.092 105.548L218.665 92.7583H212.502C206.414 92.7583 206.15 92.8783 190.928 102.588C182.453 107.995 145.818 131.238 109.518 154.24C73.218 177.241 37.311 200.042 29.725 204.909C22.139 209.776 15.727 213.758 15.475 213.758C15.224 213.758 15.018 198.049 15.018 178.848V143.939L21.794 139.475C25.521 137.02 31.483 133.213 35.044 131.016C38.605 128.819 49.843 121.725 60.018 115.251C70.193 108.777 87.293 97.9493 98.018 91.1883C108.743 84.4273 138.668 65.4003 164.518 48.9043C190.368 32.4093 211.868 18.8783 212.297 18.8353C212.725 18.7933 238.375 34.2103 269.297 53.0953ZM178.018 157.813C160.693 168.843 142.805 180.154 138.268 182.948L130.018 188.028L130.048 195.643L130.078 203.258L136.798 207.365C140.494 209.624 158.543 220.986 176.907 232.615C202.864 249.051 211.027 253.758 213.576 253.758C216.143 253.758 225.498 248.277 256.686 228.498L296.518 203.238L296.786 195.748L297.054 188.258L257.593 163.258C223.545 141.688 217.54 138.224 213.825 138.008C209.776 137.772 207.627 138.961 178.018 157.813ZM226.263 164.571C233.003 168.868 246.525 177.471 256.312 183.689C266.099 189.906 273.974 195.363 273.812 195.814C273.421 196.905 214.831 234.091 213.503 234.091C212.471 234.091 155.573 198.4 153.331 196.346C152.449 195.538 158.078 191.53 175.225 180.758C187.92 172.783 201.505 164.151 205.413 161.575C209.321 158.999 212.853 156.861 213.263 156.825C213.673 156.788 219.523 160.274 226.263 164.571ZM295.013 235.049C281.541 243.459 263.479 254.723 254.877 260.08C242.866 267.559 238.946 270.518 237.988 272.83C237.051 275.094 236.838 283.927 237.13 308.451L237.518 341.062L200.768 361.538L164.018 382.013V389.143V396.273L168.768 399.162C171.381 400.751 189.46 411.435 208.944 422.905C237.625 439.788 245.066 443.758 248.028 443.758C251.505 443.758 265.268 436.564 311.018 410.83C315.693 408.201 322.113 404.596 325.285 402.82C328.607 400.96 331.681 398.376 332.535 396.724C333.811 394.258 334.018 382.192 334.018 310.394V226.93L327.606 223.344C324.079 221.372 320.814 219.758 320.35 219.758C319.886 219.758 308.484 226.639 295.013 235.049ZM316.018 315.649V387.54L305.268 393.504C299.355 396.785 284.332 405.159 271.883 412.114C259.433 419.068 248.814 424.758 248.284 424.758C247.754 424.758 234.356 417.122 218.512 407.789C202.667 398.456 189.212 390.643 188.611 390.426C188.01 390.209 187.794 389.732 188.132 389.365C188.797 388.641 225.569 367.963 241.096 359.581C256.037 351.515 255.407 353.576 255.113 313.728L254.873 281.177L284.695 262.505C301.098 252.236 314.855 243.816 315.268 243.796C315.681 243.775 316.018 276.109 316.018 315.649ZM4.759 251.918L0 254.938L0.259 304.932L0.518 354.926L39.508 377.842C72.853 397.44 79.079 400.758 82.508 400.757C85.912 400.757 91.431 397.872 119.018 381.677C136.893 371.184 160.886 357.121 172.335 350.428C187.337 341.658 193.693 337.387 195.085 335.14C196.868 332.263 197.018 329.972 197.018 305.538C197.018 274.861 197.137 275.286 186.777 268.834C183.619 266.867 175.917 261.996 169.661 258.008C161.044 252.515 157.429 250.758 154.747 250.758C151.948 250.758 144.071 254.944 117.117 270.758C98.368 281.758 82.828 290.758 82.584 290.758C82.34 290.758 71.651 284.606 58.829 277.086C46.008 269.567 31.243 260.952 26.018 257.942C20.793 254.932 15.324 251.634 13.864 250.614C10.523 248.278 10.484 248.284 4.759 251.918ZM167.288 277.707L179.057 285.157L178.788 305.63L178.518 326.103L160.437 336.68C150.492 342.498 128.936 355.133 112.534 364.758C96.132 374.383 82.612 382.258 82.49 382.258C82.24 382.258 48.526 362.517 28.268 350.509L15.018 342.655V307.6C15.018 279.958 15.282 272.649 16.268 273.039C16.956 273.311 30.978 281.46 47.43 291.146C75.891 307.904 77.595 308.758 82.571 308.758C88.29 308.758 84.845 310.588 134.018 281.434C144.743 275.075 153.968 269.959 154.518 270.065C155.068 270.171 160.814 273.61 167.288 277.707Z" fill="#008181"/>
</svg>
