<svg width="25" height="25" viewBox="0 0 25 25" fill="none" xmlns="http://www.w3.org/2000/svg">
<path fill-rule="evenodd" clip-rule="evenodd" d="M11.4026 0.0434251C8.54083 0.357827 6.02997 1.55633 3.96543 3.59322C2.20784 5.32724 1.11983 7.32927 0.574425 9.8327C0.355825 10.8362 0.358866 13.5805 0.579831 14.5828C0.818281 15.6646 1.09871 16.4576 1.62781 17.5452L2.11113 18.5388L0.996844 21.7918C0.143391 24.2836 -0.0839092 25.034 0.0255598 24.9988C0.104198 24.9736 1.64656 24.4848 3.45314 23.9127L6.7378 22.8726L7.3251 23.1652C8.04475 23.524 9.38499 23.9716 10.3467 24.1746C11.3734 24.3912 14.0608 24.3887 15.0769 24.1701C17.6457 23.6176 19.6218 22.5604 21.415 20.7797C23.2445 18.9628 24.3325 16.9306 24.8438 14.3752C25.0513 13.3383 25.0522 10.9923 24.8456 9.96052C23.9634 5.5542 20.8617 2.02948 16.6387 0.634194C16.0817 0.450117 15.3015 0.243803 14.905 0.175589C13.966 0.0141667 12.2562 -0.0503689 11.4026 0.0434251ZM14.4531 2.17728C18.2095 2.82556 21.3273 5.53155 22.4912 9.15349C22.8298 10.2073 22.9431 10.9856 22.9413 12.2465C22.9375 14.8903 21.9832 17.2322 20.1256 19.1564C19.2274 20.0868 18.3025 20.7655 17.2363 21.2762C14.2101 22.7261 11.1156 22.7097 8.08977 21.2278L6.97304 20.6809L5.12347 21.2705C4.10624 21.5947 3.2391 21.86 3.19661 21.86C3.15404 21.86 3.40313 21.0212 3.75012 19.9959L4.38109 18.1318L4.1048 17.7344C2.99018 16.1311 2.32255 13.73 2.4359 11.7322C2.57924 9.20456 3.53262 7.00567 5.2685 5.19884C6.76863 3.63744 8.78316 2.56257 10.9314 2.17762C11.813 2.01962 13.5386 2.01945 14.4531 2.17728ZM8.10489 6.3074C8.01012 6.34543 7.71871 6.60508 7.45746 6.88437C6.8672 7.51535 6.62132 8.10754 6.56751 9.02809C6.49994 10.1838 6.84169 11.129 7.89736 12.7063C9.54108 15.1622 11.1468 16.5663 13.3779 17.4988C14.9688 18.1637 15.4832 18.2961 16.2696 18.2427C17.4636 18.1617 18.6436 17.4314 18.911 16.6079C19.1109 15.9925 19.1584 15.4856 19.031 15.3257C18.9023 15.1641 16.4884 13.87 16.1749 13.7946C15.9131 13.7316 15.8404 13.7885 15.0829 14.6499C14.7076 15.0766 14.413 15.3395 14.3102 15.3395C14.0639 15.3395 12.9143 14.7444 12.3128 14.3056C11.5754 13.7675 10.8297 12.9882 10.3017 12.2036C9.58492 11.1384 9.58754 11.1926 10.2172 10.4431C10.5135 10.0903 10.7787 9.71199 10.8066 9.60231C10.8724 9.34233 9.87439 6.6763 9.61356 6.41574C9.45374 6.25607 9.33862 6.22848 8.85124 6.23291C8.53559 6.23584 8.19975 6.26936 8.10489 6.3074Z" fill="#008181"/>
</svg>
