<svg width="28" height="28" viewBox="0 0 28 28" fill="none" xmlns="http://www.w3.org/2000/svg">
<path id="image 7 (Traced)" fill-rule="evenodd" clip-rule="evenodd" d="M12.1027 0.164881C11.5592 0.235161 10.627 0.439865 10.0311 0.61971C3.8194 2.49442 -0.342818 8.39383 0.0222429 14.8061C0.376716 21.0314 4.5374 26.0617 10.7123 27.7305C11.4553 27.9313 12.2968 28.0001 14.0115 28.0001C15.7262 28.0001 16.5677 27.9313 17.3107 27.7305C21.5484 26.5853 24.7606 23.9734 26.6006 20.1768C27.6547 18.002 27.9655 16.5964 27.9575 14.0388C27.949 11.2848 27.4927 9.44435 26.2779 7.2632C23.4747 2.23033 17.8616 -0.580429 12.1027 0.164881ZM17.3107 9.35857V8.13097V6.90336L15.8146 6.91548C14.0867 6.92945 13.5892 7.06679 12.8974 7.72095C12.3047 8.28166 12.0953 8.93812 12.0943 10.2409L12.0934 11.2H11.3203H10.5473L10.5914 12.6194L10.6356 14.0388L11.3645 14.0856L12.0934 14.1324V17.7301V21.3277H13.5511H15.0089V17.7216V14.1155H16.0608H17.1129L17.2107 13.0798C17.3188 11.9353 17.3873 11.4846 17.1992 11.3088C17.0567 11.1757 16.7672 11.2 16.2365 11.2H15.1624V10.4634C15.1624 10.0583 15.2452 9.64399 15.3465 9.54271C15.4478 9.44143 15.9312 9.35857 16.4207 9.35857H17.3107Z" fill="white"/>
</svg>
