<svg width="174" height="42" viewBox="0 0 174 42" fill="none" xmlns="http://www.w3.org/2000/svg">
<path d="M52.4959 22.2268C51.5887 22.2268 50.7192 22.081 49.8876 21.7894C49.0559 21.4924 48.316 21.0225 47.668 20.3799C47.02 19.7318 46.5096 18.884 46.137 17.8363C45.7644 16.7832 45.5808 15.5007 45.5862 13.9885C45.5916 12.6223 45.759 11.3964 46.0884 10.3109C46.4178 9.22002 46.8876 8.29386 47.4979 7.5324C48.1135 6.77095 48.848 6.19041 49.7012 5.79078C50.5599 5.38576 51.5185 5.18324 52.5769 5.18324C53.738 5.18324 54.7614 5.41006 55.6471 5.86369C56.5381 6.31192 57.251 6.91676 57.7856 7.67821C58.3202 8.43427 58.6362 9.27672 58.7334 10.2056H54.7884C54.6696 9.68175 54.4077 9.28482 54.0026 9.01481C53.603 8.73939 53.1278 8.60168 52.5769 8.60168C51.5617 8.60168 50.8029 9.04181 50.3007 9.92207C49.8038 10.8023 49.55 11.9796 49.5392 13.4539H49.6445C49.8714 12.9571 50.1981 12.5304 50.6247 12.174C51.0513 11.8176 51.5401 11.5449 52.0909 11.3559C52.6471 11.1615 53.2358 11.0642 53.8568 11.0642C54.8505 11.0642 55.7281 11.2938 56.4895 11.7528C57.251 12.2118 57.8477 12.841 58.2797 13.6402C58.7118 14.4341 58.9251 15.344 58.9197 16.3701C58.9251 17.5258 58.6551 18.5465 58.1096 19.4321C57.5642 20.3124 56.8081 20.9982 55.8415 21.4897C54.8802 21.9811 53.765 22.2268 52.4959 22.2268ZM52.4716 19.1486C52.9631 19.1486 53.4032 19.0325 53.792 18.8003C54.1809 18.5681 54.486 18.2521 54.7074 17.8525C54.9288 17.4529 55.0368 17.002 55.0314 16.4997C55.0368 15.9921 54.9288 15.5412 54.7074 15.1469C54.4914 14.7527 54.189 14.4395 53.8001 14.2073C53.4167 13.975 52.9766 13.8589 52.4797 13.8589C52.1179 13.8589 51.7804 13.9264 51.4672 14.0615C51.1539 14.1965 50.8812 14.3855 50.649 14.6285C50.4222 14.8661 50.244 15.1469 50.1144 15.471C49.9848 15.7896 49.9173 16.1352 49.9119 16.5078C49.9173 16.9993 50.0307 17.4448 50.2521 17.8444C50.4735 18.244 50.7759 18.5627 51.1593 18.8003C51.5428 19.0325 51.9802 19.1486 52.4716 19.1486ZM62.8079 22.2349C62.2247 22.2349 61.7252 22.0297 61.3093 21.6193C60.8989 21.2088 60.6964 20.712 60.7018 20.1288C60.6964 19.5563 60.8989 19.0676 61.3093 18.6626C61.7252 18.2521 62.2247 18.0469 62.8079 18.0469C63.3588 18.0469 63.8448 18.2521 64.266 18.6626C64.6927 19.0676 64.9087 19.5563 64.9141 20.1288C64.9087 20.5176 64.8061 20.8713 64.6063 21.1899C64.4119 21.5086 64.1553 21.7624 63.8367 21.9514C63.5235 22.1404 63.1806 22.2349 62.8079 22.2349ZM73.6465 22.405C72.1992 22.405 70.9517 22.0621 69.904 21.3763C68.8564 20.685 68.049 19.694 67.482 18.4034C66.9149 17.1073 66.6341 15.5493 66.6395 13.7293C66.6449 11.9094 66.9284 10.3649 67.4901 9.09581C68.0571 7.82132 68.8618 6.85196 69.904 6.18771C70.9517 5.51806 72.1992 5.18324 73.6465 5.18324C75.0938 5.18324 76.3413 5.51806 77.3889 6.18771C78.442 6.85196 79.2521 7.82132 79.8191 9.09581C80.3862 10.3703 80.667 11.9148 80.6616 13.7293C80.6616 15.5547 80.3781 17.1154 79.811 18.4115C79.244 19.7075 78.4366 20.6985 77.3889 21.3844C76.3467 22.0648 75.0992 22.405 73.6465 22.405ZM73.6465 19.1243C74.5105 19.1243 75.2099 18.6842 75.7445 17.8039C76.2792 16.9183 76.5438 15.5601 76.5384 13.7293C76.5384 12.5304 76.4169 11.5422 76.1739 10.7645C75.9308 9.98147 75.5933 9.39823 75.1613 9.01481C74.7293 8.63138 74.2243 8.43967 73.6465 8.43967C72.7878 8.43967 72.0939 8.8744 71.5646 9.74386C71.0354 10.6079 70.7681 11.9364 70.7627 13.7293C70.7573 14.9444 70.8734 15.9516 71.111 16.7508C71.354 17.5501 71.6943 18.1468 72.1317 18.5411C72.5691 18.9299 73.0741 19.1243 73.6465 19.1243ZM89.8193 22.405C88.372 22.405 87.1245 22.0621 86.0768 21.3763C85.0291 20.685 84.2218 19.694 83.6547 18.4034C83.0877 17.1073 82.8069 15.5493 82.8123 13.7293C82.8177 11.9094 83.1012 10.3649 83.6628 9.09581C84.2299 7.82132 85.0345 6.85196 86.0768 6.18771C87.1245 5.51806 88.372 5.18324 89.8193 5.18324C91.2666 5.18324 92.514 5.51806 93.5617 6.18771C94.6148 6.85196 95.4248 7.82132 95.9919 9.09581C96.5589 10.3703 96.8397 11.9148 96.8343 13.7293C96.8343 15.5547 96.5508 17.1154 95.9838 18.4115C95.4167 19.7075 94.6094 20.6985 93.5617 21.3844C92.5194 22.0648 91.272 22.405 89.8193 22.405ZM89.8193 19.1243C90.6833 19.1243 91.3827 18.6842 91.9173 17.8039C92.4519 16.9183 92.7166 15.5601 92.7112 13.7293C92.7112 12.5304 92.5896 11.5422 92.3466 10.7645C92.1036 9.98147 91.7661 9.39823 91.3341 9.01481C90.902 8.63138 90.3971 8.43967 89.8193 8.43967C88.9606 8.43967 88.2666 8.8744 87.7374 9.74386C87.2082 10.6079 86.9409 11.9364 86.9355 13.7293C86.9301 14.9444 87.0462 15.9516 87.2838 16.7508C87.5268 17.5501 87.867 18.1468 88.3044 18.5411C88.7419 18.9299 89.2468 19.1243 89.8193 19.1243ZM105.992 22.405C104.545 22.405 103.297 22.0621 102.25 21.3763C101.202 20.685 100.395 19.694 99.8275 18.4034C99.2605 17.1073 98.9796 15.5493 98.985 13.7293C98.9904 11.9094 99.274 10.3649 99.8356 9.09581C100.403 7.82132 101.207 6.85196 102.25 6.18771C103.297 5.51806 104.545 5.18324 105.992 5.18324C107.439 5.18324 108.687 5.51806 109.734 6.18771C110.788 6.85196 111.598 7.82132 112.165 9.09581C112.732 10.3703 113.013 11.9148 113.007 13.7293C113.007 15.5547 112.724 17.1154 112.157 18.4115C111.59 19.7075 110.782 20.6985 109.734 21.3844C108.692 22.0648 107.445 22.405 105.992 22.405ZM105.992 19.1243C106.856 19.1243 107.555 18.6842 108.09 17.8039C108.625 16.9183 108.889 15.5601 108.884 13.7293C108.884 12.5304 108.762 11.5422 108.519 10.7645C108.276 9.98147 107.939 9.39823 107.507 9.01481C107.075 8.63138 106.57 8.43967 105.992 8.43967C105.133 8.43967 104.439 8.8744 103.91 9.74386C103.381 10.6079 103.114 11.9364 103.108 13.7293C103.103 14.9444 103.219 15.9516 103.457 16.7508C103.7 17.5501 104.04 18.1468 104.477 18.5411C104.915 18.9299 105.42 19.1243 105.992 19.1243ZM120.277 19.6022V7.87263H123.542V19.6022H120.277ZM116.041 15.3737V12.1011H127.77V15.3737H116.041Z" fill="#008181"/>
<path d="M50.163 32.7788C50.1144 32.3683 49.9173 32.0497 49.5716 31.8229C49.226 31.5961 48.8021 31.4827 48.2998 31.4827C47.9326 31.4827 47.6113 31.5421 47.3359 31.6609C47.0632 31.7797 46.8498 31.9431 46.6959 32.151C46.5447 32.3589 46.4691 32.5952 46.4691 32.8598C46.4691 33.0812 46.5218 33.2716 46.6271 33.4309C46.7351 33.5875 46.8728 33.7184 47.0402 33.8237C47.2076 33.9264 47.3831 34.0114 47.5667 34.0789C47.7504 34.1437 47.9191 34.1964 48.073 34.2369L48.9155 34.4637C49.1315 34.5204 49.3718 34.5987 49.6364 34.6986C49.9038 34.7985 50.1589 34.9349 50.4019 35.1077C50.6477 35.2778 50.8502 35.4965 51.0095 35.7638C51.1688 36.0311 51.2484 36.3592 51.2484 36.748C51.2484 37.1963 51.131 37.6013 50.8961 37.9631C50.6639 38.325 50.3236 38.6125 49.8754 38.8258C49.4299 39.0392 48.8885 39.1458 48.2512 39.1458C47.6572 39.1458 47.1428 39.05 46.7081 38.8582C46.2761 38.6665 45.9358 38.3992 45.6874 38.0563C45.4417 37.7134 45.3026 37.3151 45.2702 36.8615H46.3071C46.3341 37.1747 46.4394 37.4339 46.623 37.6391C46.8093 37.8416 47.0443 37.9928 47.3278 38.0927C47.614 38.1899 47.9218 38.2385 48.2512 38.2385C48.6347 38.2385 48.9789 38.1764 49.2841 38.0522C49.5892 37.9253 49.8309 37.7498 50.0091 37.5257C50.1873 37.2989 50.2764 37.0343 50.2764 36.7318C50.2764 36.4564 50.1994 36.2323 50.0455 36.0595C49.8916 35.8867 49.6891 35.7463 49.438 35.6383C49.1869 35.5303 48.9155 35.4358 48.6239 35.3547L47.6032 35.0631C46.9552 34.8768 46.4421 34.6108 46.0641 34.2652C45.6861 33.9196 45.4971 33.4673 45.4971 32.9084C45.4971 32.4439 45.6226 32.0389 45.8737 31.6933C46.1275 31.345 46.4678 31.075 46.8944 30.8832C47.3237 30.6888 47.803 30.5916 48.3322 30.5916C48.8669 30.5916 49.3421 30.6875 49.7579 30.8792C50.1738 31.0682 50.5032 31.3274 50.7462 31.6568C50.9919 31.9863 51.1215 32.3602 51.135 32.7788H50.163ZM55.2977 39.1296C54.7361 39.1296 54.2433 38.9959 53.8194 38.7286C53.3981 38.4613 53.0687 38.0873 52.8311 37.6067C52.5962 37.1261 52.4787 36.5644 52.4787 35.9218C52.4787 35.2737 52.5962 34.7081 52.8311 34.2247C53.0687 33.7414 53.3981 33.3661 53.8194 33.0987C54.2433 32.8314 54.7361 32.6978 55.2977 32.6978C55.8594 32.6978 56.3508 32.8314 56.772 33.0987C57.1959 33.3661 57.5254 33.7414 57.7603 34.2247C57.9979 34.7081 58.1167 35.2737 58.1167 35.9218C58.1167 36.5644 57.9979 37.1261 57.7603 37.6067C57.5254 38.0873 57.1959 38.4613 56.772 38.7286C56.3508 38.9959 55.8594 39.1296 55.2977 39.1296ZM55.2977 38.2709C55.7243 38.2709 56.0754 38.1616 56.3508 37.9429C56.6262 37.7242 56.8301 37.4366 56.9624 37.0802C57.0947 36.7237 57.1608 36.3376 57.1608 35.9218C57.1608 35.506 57.0947 35.1185 56.9624 34.7594C56.8301 34.4002 56.6262 34.11 56.3508 33.8885C56.0754 33.6671 55.7243 33.5564 55.2977 33.5564C54.8711 33.5564 54.5201 33.6671 54.2446 33.8885C53.9692 34.11 53.7654 34.4002 53.6331 34.7594C53.5007 35.1185 53.4346 35.506 53.4346 35.9218C53.4346 36.3376 53.5007 36.7237 53.6331 37.0802C53.7654 37.4366 53.9692 37.7242 54.2446 37.9429C54.5201 38.1616 54.8711 38.2709 55.2977 38.2709ZM60.5317 30.705V39H59.5758V30.705H60.5317ZM64.6316 39.1296C64.1131 39.1296 63.6555 38.9986 63.2585 38.7367C62.8616 38.4721 62.5511 38.0995 62.327 37.6189C62.1029 37.1355 61.9908 36.5644 61.9908 35.9056C61.9908 35.2521 62.1029 34.6851 62.327 34.2045C62.5511 33.7238 62.863 33.3526 63.2626 33.0906C63.6622 32.8287 64.1239 32.6978 64.6478 32.6978C65.0528 32.6978 65.3728 32.7653 65.6077 32.9003C65.8453 33.0326 66.0262 33.1838 66.1504 33.3539C66.2773 33.5213 66.3759 33.659 66.4461 33.767H66.5271V30.705H67.483V39H66.5595V38.0441H66.4461C66.3759 38.1575 66.276 38.3007 66.1464 38.4735C66.0168 38.6436 65.8318 38.7961 65.5915 38.9311C65.3512 39.0635 65.0312 39.1296 64.6316 39.1296ZM64.7612 38.2709C65.1446 38.2709 65.4686 38.171 65.7333 37.9712C65.9979 37.7687 66.199 37.4892 66.3367 37.1328C66.4745 36.7737 66.5433 36.3592 66.5433 35.8894C66.5433 35.425 66.4758 35.0186 66.3408 34.6703C66.2058 34.3192 66.006 34.0465 65.7414 33.8521C65.4767 33.655 65.15 33.5564 64.7612 33.5564C64.3562 33.5564 64.0186 33.6604 63.7486 33.8683C63.4813 34.0735 63.2801 34.353 63.1451 34.7067C63.0128 35.0577 62.9467 35.452 62.9467 35.8894C62.9467 36.3322 63.0142 36.7345 63.1492 37.0964C63.2869 37.4555 63.4894 37.7417 63.7567 37.955C64.0267 38.1656 64.3616 38.2709 64.7612 38.2709ZM71.1971 39.1458C70.8029 39.1458 70.4451 39.0716 70.1238 38.923C69.8024 38.7718 69.5473 38.5545 69.3583 38.2709C69.1692 37.9847 69.0747 37.6391 69.0747 37.2341C69.0747 36.8777 69.1449 36.5887 69.2854 36.3673C69.4258 36.1432 69.6134 35.9677 69.8483 35.8408C70.0833 35.7139 70.3425 35.6194 70.626 35.5573C70.9122 35.4925 71.1998 35.4412 71.4887 35.4034C71.8667 35.3547 72.1732 35.3183 72.4081 35.294C72.6457 35.267 72.8185 35.2224 72.9266 35.1603C73.0373 35.0982 73.0926 34.9902 73.0926 34.8363V34.8039C73.0926 34.4043 72.9833 34.0938 72.7645 33.8723C72.5485 33.6509 72.2205 33.5402 71.7803 33.5402C71.324 33.5402 70.9662 33.6401 70.707 33.8399C70.4478 34.0398 70.2655 34.2531 70.1602 34.4799L69.2529 34.1559C69.415 33.7778 69.631 33.4835 69.901 33.2729C70.1737 33.0596 70.4707 32.9111 70.7921 32.8274C71.1161 32.741 71.4347 32.6978 71.7479 32.6978C71.9477 32.6978 72.1773 32.7221 72.4365 32.7707C72.6984 32.8166 72.9509 32.9124 73.1939 33.0582C73.4396 33.2041 73.6435 33.4241 73.8055 33.7184C73.9675 34.0128 74.0485 34.407 74.0485 34.9011V39H73.0926V38.1575H73.044C72.9792 38.2926 72.8712 38.437 72.72 38.5909C72.5688 38.7448 72.3676 38.8758 72.1165 38.9838C71.8654 39.0918 71.5589 39.1458 71.1971 39.1458ZM71.3429 38.2872C71.7209 38.2872 72.0395 38.2129 72.2988 38.0644C72.5607 37.9159 72.7578 37.7242 72.8901 37.4892C73.0251 37.2543 73.0926 37.0073 73.0926 36.748V35.8732C73.0521 35.9218 72.963 35.9663 72.8253 36.0068C72.6903 36.0446 72.5337 36.0784 72.3555 36.1081C72.18 36.1351 72.0085 36.1594 71.8411 36.181C71.6764 36.1999 71.5427 36.2161 71.4401 36.2296C71.1917 36.262 70.9595 36.3147 70.7435 36.3876C70.5301 36.4578 70.3573 36.5644 70.225 36.7075C70.0954 36.848 70.0306 37.0397 70.0306 37.2827C70.0306 37.6148 70.1535 37.8659 70.3992 38.036C70.6476 38.2034 70.9622 38.2872 71.3429 38.2872ZM78.1423 39.1296C77.6239 39.1296 77.1662 38.9986 76.7693 38.7367C76.3723 38.4721 76.0618 38.0995 75.8377 37.6189C75.6136 37.1355 75.5015 36.5644 75.5015 35.9056C75.5015 35.2521 75.6136 34.6851 75.8377 34.2045C76.0618 33.7238 76.3737 33.3526 76.7733 33.0906C77.1729 32.8287 77.6347 32.6978 78.1585 32.6978C78.5635 32.6978 78.8835 32.7653 79.1184 32.9003C79.356 33.0326 79.5369 33.1838 79.6612 33.3539C79.7881 33.5213 79.8866 33.659 79.9568 33.767H80.0378V30.705H80.9937V39H80.0702V38.0441H79.9568C79.8866 38.1575 79.7867 38.3007 79.6571 38.4735C79.5275 38.6436 79.3425 38.7961 79.1022 38.9311C78.8619 39.0635 78.5419 39.1296 78.1423 39.1296ZM78.2719 38.2709C78.6553 38.2709 78.9794 38.171 79.244 37.9712C79.5086 37.7687 79.7098 37.4892 79.8475 37.1328C79.9852 36.7737 80.054 36.3592 80.054 35.8894C80.054 35.425 79.9865 35.0186 79.8515 34.6703C79.7165 34.3192 79.5167 34.0465 79.2521 33.8521C78.9875 33.655 78.6607 33.5564 78.2719 33.5564C77.8669 33.5564 77.5294 33.6604 77.2593 33.8683C76.992 34.0735 76.7909 34.353 76.6558 34.7067C76.5235 35.0577 76.4574 35.452 76.4574 35.8894C76.4574 36.3322 76.5249 36.7345 76.6599 37.0964C76.7976 37.4555 77.0001 37.7417 77.2674 37.955C77.5375 38.1656 77.8723 38.2709 78.2719 38.2709ZM85.4045 39.1296C84.8428 39.1296 84.35 38.9959 83.9261 38.7286C83.5049 38.4613 83.1754 38.0873 82.9378 37.6067C82.7029 37.1261 82.5855 36.5644 82.5855 35.9218C82.5855 35.2737 82.7029 34.7081 82.9378 34.2247C83.1754 33.7414 83.5049 33.3661 83.9261 33.0987C84.35 32.8314 84.8428 32.6978 85.4045 32.6978C85.9661 32.6978 86.4575 32.8314 86.8788 33.0987C87.3027 33.3661 87.6321 33.7414 87.867 34.2247C88.1046 34.7081 88.2234 35.2737 88.2234 35.9218C88.2234 36.5644 88.1046 37.1261 87.867 37.6067C87.6321 38.0873 87.3027 38.4613 86.8788 38.7286C86.4575 38.9959 85.9661 39.1296 85.4045 39.1296ZM85.4045 38.2709C85.8311 38.2709 86.1821 38.1616 86.4575 37.9429C86.7329 37.7242 86.9368 37.4366 87.0691 37.0802C87.2014 36.7237 87.2676 36.3376 87.2676 35.9218C87.2676 35.506 87.2014 35.1185 87.0691 34.7594C86.9368 34.4002 86.7329 34.11 86.4575 33.8885C86.1821 33.6671 85.8311 33.5564 85.4045 33.5564C84.9778 33.5564 84.6268 33.6671 84.3514 33.8885C84.076 34.11 83.8721 34.4002 83.7398 34.7594C83.6075 35.1185 83.5413 35.506 83.5413 35.9218C83.5413 36.3376 83.6075 36.7237 83.7398 37.0802C83.8721 37.4366 84.076 37.7242 84.3514 37.9429C84.6268 38.1616 84.9778 38.2709 85.4045 38.2709ZM89.6826 39V32.7788H90.606V33.7184H90.6708C90.7842 33.4106 90.9894 33.1608 91.2865 32.9691C91.5835 32.7774 91.9183 32.6816 92.2909 32.6816C92.3611 32.6816 92.4489 32.6829 92.5542 32.6856C92.6595 32.6883 92.7392 32.6924 92.7932 32.6978V33.6698C92.7608 33.6617 92.6865 33.6496 92.5704 33.6334C92.457 33.6145 92.3368 33.605 92.2099 33.605C91.9075 33.605 91.6375 33.6685 91.3999 33.7954C91.165 33.9196 90.9786 34.0924 90.8409 34.3138C90.7059 34.5325 90.6384 34.7823 90.6384 35.0631V39H89.6826ZM96.3453 39.1296C95.7458 39.1296 95.2287 38.9973 94.794 38.7327C94.362 38.4654 94.0285 38.0927 93.7936 37.6148C93.5614 37.1342 93.4453 36.5752 93.4453 35.938C93.4453 35.3007 93.5614 34.7391 93.7936 34.2531C94.0285 33.7643 94.3552 33.3836 94.7738 33.1109C95.195 32.8355 95.6864 32.6978 96.2481 32.6978C96.5721 32.6978 96.8921 32.7518 97.208 32.8598C97.5239 32.9678 97.8115 33.1433 98.0707 33.3863C98.3299 33.6266 98.5365 33.9453 98.6904 34.3422C98.8443 34.7391 98.9212 35.2278 98.9212 35.8084V36.2134H94.1257V35.3872H97.9492C97.9492 35.0361 97.879 34.7229 97.7386 34.4475C97.6009 34.1721 97.4037 33.9547 97.1472 33.7954C96.8934 33.6361 96.5937 33.5564 96.2481 33.5564C95.8673 33.5564 95.5379 33.6509 95.2598 33.8399C94.9844 34.0263 94.7724 34.2693 94.6239 34.569C94.4754 34.8687 94.4011 35.19 94.4011 35.533V36.0838C94.4011 36.5536 94.4821 36.9519 94.6441 37.2786C94.8089 37.6027 95.037 37.8497 95.3286 38.0198C95.6203 38.1872 95.9591 38.2709 96.3453 38.2709C96.5964 38.2709 96.8232 38.2358 97.0257 38.1656C97.2309 38.0927 97.4078 37.9847 97.5563 37.8416C97.7048 37.6958 97.8196 37.5149 97.9006 37.2989L98.824 37.5581C98.7268 37.8713 98.5635 38.1467 98.334 38.3844C98.1044 38.6193 97.8209 38.8029 97.4834 38.9352C97.1459 39.0648 96.7665 39.1296 96.3453 39.1296ZM104.782 34.1721L103.923 34.4151C103.869 34.272 103.79 34.1329 103.684 33.9979C103.582 33.8602 103.441 33.7468 103.263 33.6577C103.085 33.5686 102.857 33.524 102.579 33.524C102.198 33.524 101.881 33.6118 101.627 33.7873C101.376 33.9601 101.25 34.1802 101.25 34.4475C101.25 34.6851 101.337 34.8728 101.509 35.0105C101.682 35.1482 101.952 35.2629 102.319 35.3547L103.243 35.5816C103.799 35.7166 104.214 35.9231 104.486 36.2013C104.759 36.4767 104.895 36.8318 104.895 37.2665C104.895 37.6229 104.793 37.9415 104.588 38.2223C104.385 38.5032 104.102 38.7246 103.737 38.8866C103.373 39.0486 102.949 39.1296 102.465 39.1296C101.831 39.1296 101.306 38.9919 100.89 38.7165C100.474 38.4411 100.211 38.0387 100.1 37.5095L101.007 37.2827C101.094 37.6175 101.257 37.8686 101.497 38.036C101.74 38.2034 102.058 38.2872 102.449 38.2872C102.895 38.2872 103.248 38.1926 103.51 38.0036C103.775 37.8119 103.907 37.5824 103.907 37.3151C103.907 37.0991 103.832 36.9182 103.68 36.7723C103.529 36.6238 103.297 36.5131 102.984 36.4402L101.947 36.1972C101.377 36.0622 100.959 35.8529 100.691 35.5694C100.427 35.2832 100.294 34.9254 100.294 34.4961C100.294 34.1451 100.393 33.8345 100.59 33.5645C100.79 33.2945 101.061 33.0825 101.404 32.9286C101.75 32.7747 102.141 32.6978 102.579 32.6978C103.194 32.6978 103.678 32.8328 104.029 33.1028C104.382 33.3728 104.633 33.7292 104.782 34.1721ZM113.787 41.333V38.0441H113.706C113.636 38.1575 113.536 38.3007 113.406 38.4735C113.276 38.6436 113.091 38.7961 112.851 38.9311C112.611 39.0635 112.291 39.1296 111.891 39.1296C111.373 39.1296 110.915 38.9986 110.518 38.7367C110.121 38.4721 109.811 38.0995 109.587 37.6189C109.363 37.1355 109.25 36.5644 109.25 35.9056C109.25 35.2521 109.363 34.6851 109.587 34.2045C109.811 33.7238 110.123 33.3526 110.522 33.0906C110.922 32.8287 111.384 32.6978 111.907 32.6978C112.312 32.6978 112.632 32.7653 112.867 32.9003C113.105 33.0326 113.286 33.1838 113.41 33.3539C113.537 33.5213 113.636 33.659 113.706 33.767H113.819V32.7788H114.743V41.333H113.787ZM112.021 38.2709C112.404 38.2709 112.728 38.171 112.993 37.9712C113.258 37.7687 113.459 37.4892 113.596 37.1328C113.734 36.7737 113.803 36.3592 113.803 35.8894C113.803 35.425 113.735 35.0186 113.6 34.6703C113.465 34.3192 113.266 34.0465 113.001 33.8521C112.736 33.655 112.41 33.5564 112.021 33.5564C111.616 33.5564 111.278 33.6604 111.008 33.8683C110.741 34.0735 110.54 34.353 110.405 34.7067C110.272 35.0577 110.206 35.452 110.206 35.8894C110.206 36.3322 110.274 36.7345 110.409 37.0964C110.547 37.4555 110.749 37.7417 111.016 37.955C111.286 38.1656 111.621 38.2709 112.021 38.2709ZM120.413 36.4564V32.7788H121.369V39H120.413V37.9469H120.348C120.202 38.2628 119.976 38.5315 119.668 38.7529C119.36 38.9716 118.971 39.081 118.501 39.081C118.112 39.081 117.767 38.9959 117.464 38.8258C117.162 38.653 116.924 38.3938 116.752 38.0482C116.579 37.6999 116.492 37.2611 116.492 36.7318V32.7788H117.448V36.667C117.448 37.1207 117.575 37.4825 117.829 37.7525C118.085 38.0225 118.412 38.1575 118.809 38.1575C119.047 38.1575 119.288 38.0968 119.534 37.9753C119.783 37.8538 119.99 37.6675 120.158 37.4163C120.328 37.1652 120.413 36.8453 120.413 36.4564ZM124.95 39.1458C124.556 39.1458 124.198 39.0716 123.877 38.923C123.556 38.7718 123.301 38.5545 123.112 38.2709C122.923 37.9847 122.828 37.6391 122.828 37.2341C122.828 36.8777 122.898 36.5887 123.039 36.3673C123.179 36.1432 123.367 35.9677 123.602 35.8408C123.837 35.7139 124.096 35.6194 124.379 35.5573C124.665 35.4925 124.953 35.4412 125.242 35.4034C125.62 35.3547 125.926 35.3183 126.161 35.294C126.399 35.267 126.572 35.2224 126.68 35.1603C126.791 35.0982 126.846 34.9902 126.846 34.8363V34.8039C126.846 34.4043 126.737 34.0938 126.518 33.8723C126.302 33.6509 125.974 33.5402 125.534 33.5402C125.077 33.5402 124.719 33.6401 124.46 33.8399C124.201 34.0398 124.019 34.2531 123.913 34.4799L123.006 34.1559C123.168 33.7778 123.384 33.4835 123.654 33.2729C123.927 33.0596 124.224 32.9111 124.545 32.8274C124.869 32.741 125.188 32.6978 125.501 32.6978C125.701 32.6978 125.931 32.7221 126.19 32.7707C126.452 32.8166 126.704 32.9124 126.947 33.0582C127.193 33.2041 127.397 33.4241 127.559 33.7184C127.721 34.0128 127.802 34.407 127.802 34.9011V39H126.846V38.1575H126.797C126.732 38.2926 126.624 38.437 126.473 38.5909C126.322 38.7448 126.121 38.8758 125.87 38.9838C125.619 39.0918 125.312 39.1458 124.95 39.1458ZM125.096 38.2872C125.474 38.2872 125.793 38.2129 126.052 38.0644C126.314 37.9159 126.511 37.7242 126.643 37.4892C126.778 37.2543 126.846 37.0073 126.846 36.748V35.8732C126.805 35.9218 126.716 35.9663 126.579 36.0068C126.444 36.0446 126.287 36.0784 126.109 36.1081C125.933 36.1351 125.762 36.1594 125.594 36.181C125.43 36.1999 125.296 36.2161 125.193 36.2296C124.945 36.262 124.713 36.3147 124.497 36.3876C124.283 36.4578 124.111 36.5644 123.978 36.7075C123.849 36.848 123.784 37.0397 123.784 37.2827C123.784 37.6148 123.907 37.8659 124.152 38.036C124.401 38.2034 124.715 38.2872 125.096 38.2872ZM130.502 30.705V39H129.546V30.705H130.502ZM132.253 39V32.7788H133.209V39H132.253ZM132.739 31.7419C132.553 31.7419 132.392 31.6784 132.257 31.5515C132.125 31.4246 132.059 31.2721 132.059 31.0939C132.059 30.9156 132.125 30.7631 132.257 30.6362C132.392 30.5093 132.553 30.4458 132.739 30.4458C132.925 30.4458 133.085 30.5093 133.217 30.6362C133.352 30.7631 133.419 30.9156 133.419 31.0939C133.419 31.2721 133.352 31.4246 133.217 31.5515C133.085 31.6784 132.925 31.7419 132.739 31.7419ZM137.73 32.7788V33.5888H134.376V32.7788H137.73ZM135.381 39V31.9201C135.381 31.5637 135.465 31.2667 135.632 31.0291C135.799 30.7914 136.017 30.6132 136.284 30.4944C136.551 30.3756 136.834 30.3162 137.131 30.3162C137.365 30.3162 137.557 30.3351 137.706 30.3729C137.854 30.4107 137.965 30.4458 138.038 30.4782L137.762 31.3045C137.714 31.2883 137.646 31.268 137.56 31.2437C137.476 31.2194 137.365 31.2073 137.228 31.2073C136.912 31.2073 136.684 31.2869 136.543 31.4462C136.406 31.6055 136.337 31.8391 136.337 32.1469V39H135.381ZM139.07 39V32.7788H140.025V39H139.07ZM139.556 31.7419C139.369 31.7419 139.209 31.6784 139.074 31.5515C138.941 31.4246 138.875 31.2721 138.875 31.0939C138.875 30.9156 138.941 30.7631 139.074 30.6362C139.209 30.5093 139.369 30.4458 139.556 30.4458C139.742 30.4458 139.901 30.5093 140.034 30.6362C140.169 30.7631 140.236 30.9156 140.236 31.0939C140.236 31.2721 140.169 31.4246 140.034 31.5515C139.901 31.6784 139.742 31.7419 139.556 31.7419ZM144.304 39.1296C143.72 39.1296 143.218 38.9919 142.797 38.7165C142.376 38.4411 142.052 38.0617 141.825 37.5784C141.598 37.095 141.485 36.5428 141.485 35.9218C141.485 35.2899 141.601 34.7324 141.833 34.249C142.068 33.763 142.395 33.3836 142.813 33.1109C143.234 32.8355 143.726 32.6978 144.287 32.6978C144.725 32.6978 145.119 32.7788 145.47 32.9408C145.821 33.1028 146.109 33.3296 146.333 33.6212C146.557 33.9128 146.696 34.2531 146.75 34.6419H145.794C145.721 34.3584 145.559 34.1073 145.308 33.8885C145.06 33.6671 144.725 33.5564 144.304 33.5564C143.931 33.5564 143.604 33.6536 143.323 33.848C143.045 34.0398 142.828 34.3111 142.671 34.6622C142.517 35.0105 142.44 35.4196 142.44 35.8894C142.44 36.37 142.516 36.7885 142.667 37.145C142.821 37.5014 143.037 37.7782 143.315 37.9753C143.596 38.1724 143.926 38.2709 144.304 38.2709C144.552 38.2709 144.777 38.2277 144.98 38.1413C145.183 38.0549 145.354 37.9307 145.494 37.7687C145.635 37.6067 145.735 37.4123 145.794 37.1855H146.75C146.696 37.5527 146.562 37.8835 146.349 38.1778C146.138 38.4694 145.859 38.7016 145.511 38.8744C145.165 39.0446 144.763 39.1296 144.304 39.1296ZM149.978 39.1458C149.584 39.1458 149.226 39.0716 148.905 38.923C148.583 38.7718 148.328 38.5545 148.139 38.2709C147.95 37.9847 147.856 37.6391 147.856 37.2341C147.856 36.8777 147.926 36.5887 148.066 36.3673C148.207 36.1432 148.394 35.9677 148.629 35.8408C148.864 35.7139 149.123 35.6194 149.407 35.5573C149.693 35.4925 149.981 35.4412 150.27 35.4034C150.648 35.3547 150.954 35.3183 151.189 35.294C151.427 35.267 151.6 35.2224 151.708 35.1603C151.818 35.0982 151.874 34.9902 151.874 34.8363V34.8039C151.874 34.4043 151.764 34.0938 151.546 33.8723C151.329 33.6509 151.001 33.5402 150.561 33.5402C150.105 33.5402 149.747 33.6401 149.488 33.8399C149.229 34.0398 149.046 34.2531 148.941 34.4799L148.034 34.1559C148.196 33.7778 148.412 33.4835 148.682 33.2729C148.955 33.0596 149.252 32.9111 149.573 32.8274C149.897 32.741 150.216 32.6978 150.529 32.6978C150.729 32.6978 150.958 32.7221 151.217 32.7707C151.479 32.8166 151.732 32.9124 151.975 33.0582C152.221 33.2041 152.424 33.4241 152.586 33.7184C152.748 34.0128 152.829 34.407 152.829 34.9011V39H151.874V38.1575H151.825C151.76 38.2926 151.652 38.437 151.501 38.5909C151.35 38.7448 151.149 38.8758 150.897 38.9838C150.646 39.0918 150.34 39.1458 149.978 39.1458ZM150.124 38.2872C150.502 38.2872 150.821 38.2129 151.08 38.0644C151.342 37.9159 151.539 37.7242 151.671 37.4892C151.806 37.2543 151.874 37.0073 151.874 36.748V35.8732C151.833 35.9218 151.744 35.9663 151.606 36.0068C151.471 36.0446 151.315 36.0784 151.136 36.1081C150.961 36.1351 150.789 36.1594 150.622 36.181C150.457 36.1999 150.324 36.2161 150.221 36.2296C149.973 36.262 149.74 36.3147 149.524 36.3876C149.311 36.4578 149.138 36.5644 149.006 36.7075C148.876 36.848 148.812 37.0397 148.812 37.2827C148.812 37.6148 148.934 37.8659 149.18 38.036C149.429 38.2034 149.743 38.2872 150.124 38.2872ZM156.923 39.1296C156.405 39.1296 155.947 38.9986 155.55 38.7367C155.153 38.4721 154.843 38.0995 154.619 37.6189C154.395 37.1355 154.282 36.5644 154.282 35.9056C154.282 35.2521 154.395 34.6851 154.619 34.2045C154.843 33.7238 155.155 33.3526 155.554 33.0906C155.954 32.8287 156.416 32.6978 156.939 32.6978C157.344 32.6978 157.664 32.7653 157.899 32.9003C158.137 33.0326 158.318 33.1838 158.442 33.3539C158.569 33.5213 158.668 33.659 158.738 33.767H158.819V30.705H159.775V39H158.851V38.0441H158.738C158.668 38.1575 158.568 38.3007 158.438 38.4735C158.308 38.6436 158.123 38.7961 157.883 38.9311C157.643 39.0635 157.323 39.1296 156.923 39.1296ZM157.053 38.2709C157.436 38.2709 157.76 38.171 158.025 37.9712C158.29 37.7687 158.491 37.4892 158.628 37.1328C158.766 36.7737 158.835 36.3592 158.835 35.8894C158.835 35.425 158.767 35.0186 158.632 34.6703C158.497 34.3192 158.298 34.0465 158.033 33.8521C157.768 33.655 157.442 33.5564 157.053 33.5564C156.648 33.5564 156.31 33.6604 156.04 33.8683C155.773 34.0735 155.572 34.353 155.437 34.7067C155.305 35.0577 155.238 35.452 155.238 35.8894C155.238 36.3322 155.306 36.7345 155.441 37.0964C155.579 37.4555 155.781 37.7417 156.048 37.955C156.318 38.1656 156.653 38.2709 157.053 38.2709ZM164.185 39.1296C163.624 39.1296 163.131 38.9959 162.707 38.7286C162.286 38.4613 161.956 38.0873 161.719 37.6067C161.484 37.1261 161.366 36.5644 161.366 35.9218C161.366 35.2737 161.484 34.7081 161.719 34.2247C161.956 33.7414 162.286 33.3661 162.707 33.0987C163.131 32.8314 163.624 32.6978 164.185 32.6978C164.747 32.6978 165.238 32.8314 165.66 33.0987C166.084 33.3661 166.413 33.7414 166.648 34.2247C166.886 34.7081 167.004 35.2737 167.004 35.9218C167.004 36.5644 166.886 37.1261 166.648 37.6067C166.413 38.0873 166.084 38.4613 165.66 38.7286C165.238 38.9959 164.747 39.1296 164.185 39.1296ZM164.185 38.2709C164.612 38.2709 164.963 38.1616 165.238 37.9429C165.514 37.7242 165.718 37.4366 165.85 37.0802C165.982 36.7237 166.049 36.3376 166.049 35.9218C166.049 35.506 165.982 35.1185 165.85 34.7594C165.718 34.4002 165.514 34.11 165.238 33.8885C164.963 33.6671 164.612 33.5564 164.185 33.5564C163.759 33.5564 163.408 33.6671 163.132 33.8885C162.857 34.11 162.653 34.4002 162.521 34.7594C162.388 35.1185 162.322 35.506 162.322 35.9218C162.322 36.3376 162.388 36.7237 162.521 37.0802C162.653 37.4366 162.857 37.7242 163.132 37.9429C163.408 38.1616 163.759 38.2709 164.185 38.2709ZM172.87 34.1721L172.012 34.4151C171.958 34.272 171.878 34.1329 171.773 33.9979C171.67 33.8602 171.53 33.7468 171.351 33.6577C171.173 33.5686 170.945 33.524 170.667 33.524C170.286 33.524 169.969 33.6118 169.715 33.7873C169.464 33.9601 169.338 34.1802 169.338 34.4475C169.338 34.6851 169.425 34.8728 169.598 35.0105C169.77 35.1482 170.04 35.2629 170.408 35.3547L171.331 35.5816C171.887 35.7166 172.302 35.9231 172.575 36.2013C172.847 36.4767 172.984 36.8318 172.984 37.2665C172.984 37.6229 172.881 37.9415 172.676 38.2223C172.473 38.5032 172.19 38.7246 171.825 38.8866C171.461 39.0486 171.037 39.1296 170.553 39.1296C169.919 39.1296 169.394 38.9919 168.978 38.7165C168.562 38.4411 168.299 38.0387 168.188 37.5095L169.095 37.2827C169.182 37.6175 169.345 37.8686 169.585 38.036C169.828 38.2034 170.146 38.2872 170.537 38.2872C170.983 38.2872 171.337 38.1926 171.598 38.0036C171.863 37.8119 171.995 37.5824 171.995 37.3151C171.995 37.0991 171.92 36.9182 171.769 36.7723C171.617 36.6238 171.385 36.5131 171.072 36.4402L170.035 36.1972C169.465 36.0622 169.047 35.8529 168.779 35.5694C168.515 35.2832 168.383 34.9254 168.383 34.4961C168.383 34.1451 168.481 33.8345 168.678 33.5645C168.878 33.2945 169.149 33.0825 169.492 32.9286C169.838 32.7747 170.229 32.6978 170.667 32.6978C171.283 32.6978 171.766 32.8328 172.117 33.1028C172.471 33.3728 172.722 33.7292 172.87 34.1721Z" fill="#1B2C37"/>
<path fill-rule="evenodd" clip-rule="evenodd" d="M11.6505 2.23855C10.9663 2.57574 10.4387 3.24876 10.24 4.0375L10.0724 4.70358H8.38538C7.27454 4.70358 6.63667 4.76544 6.51749 4.88462C6.21002 5.19209 6.28847 7.11249 6.63155 7.67508C7.26398 8.71214 7.20032 8.70158 12.8171 8.70158C17.5922 8.70158 17.9057 8.68468 18.3713 8.40316C19.038 8.00005 19.4619 7.0802 19.4619 6.0371C19.4619 4.80421 19.2945 4.70358 17.244 4.70358H15.578L15.4821 4.10403C15.3685 3.3936 14.6295 2.48628 13.9248 2.19179C13.2715 1.91887 12.2567 1.93968 11.6505 2.23855ZM13.6816 3.82463C14.5708 4.66013 13.6134 6.20321 12.4744 5.77022C11.9078 5.55478 11.5685 4.96504 11.6909 4.40818C11.8854 3.52289 13.0095 3.1934 13.6816 3.82463ZM0.829773 5.78395C0.663818 5.87522 0.410814 6.09368 0.267338 6.26959C0.0244411 6.56771 0.00648779 7.59949 0.00331957 21.4992L0 36.4091L0.440986 36.85L0.881973 37.291L12.8499 37.2877C23.9614 37.2845 24.8408 37.2657 25.1396 37.0237C25.3165 36.8802 25.5372 36.6147 25.6299 36.4335C25.8186 36.0645 25.8696 31.7076 25.6852 31.7112C25.6231 31.7124 25.1648 31.8403 24.6669 31.9954L23.7617 32.2774L23.6862 33.7659L23.6108 35.2543H12.8238H2.03672L1.99824 21.4876L1.95962 7.72094H3.63893H5.31809L5.2238 7.24948C5.1719 6.99014 5.12951 6.5149 5.12951 6.1934V5.60879L3.13051 5.61332C1.96943 5.61603 1.00508 5.68754 0.829773 5.78395ZM20.518 6.42619C20.518 6.87578 20.4768 7.35101 20.4264 7.48227C20.3463 7.69107 20.5446 7.72094 22.0106 7.72094H23.6862V10.9646C23.6862 13.9513 23.7072 14.2087 23.9503 14.2132C24.0956 14.216 24.5708 14.3412 25.0063 14.4917L25.7984 14.7654V10.8585C25.7984 5.54361 25.8394 5.60879 22.4868 5.60879H20.518V6.42619ZM7.21359 11.2917L6.20761 12.2975L5.65392 11.8114C5.03491 11.268 4.74434 11.2559 4.41017 11.7601C4.19247 12.0886 4.22083 12.1409 5.0847 13.0048C5.5806 13.5007 6.07439 13.9065 6.18181 13.9065C6.46846 13.9065 9.20294 11.1778 9.20294 10.8916C9.20294 10.7575 9.12147 10.5663 9.0219 10.4667C8.65016 10.095 8.20887 10.2964 7.21359 11.2917ZM10.5607 13.1522V13.9065H15.992H21.4232V13.1522V12.3978H15.992H10.5607V13.1522ZM20.4049 15.3423C16.4067 16.2109 13.6262 20.0924 14.1387 24.0901C14.3404 25.6633 14.8012 26.8363 15.6687 27.9849C18.1885 31.3215 22.8004 32.2106 26.3135 30.0372L27.0548 29.5785L28.0866 30.6023C29.0354 31.5439 29.111 31.6655 29.027 32.1131C28.9389 32.5835 29.0558 32.7199 32.4938 36.1524C35.0704 38.725 36.1475 39.7049 36.3984 39.7049C36.8591 39.7049 38.6222 37.939 38.6222 37.4775C38.6222 37.2435 37.56 36.0823 35.0603 33.583C31.6436 30.1672 31.4789 30.0257 31.021 30.1115C30.5853 30.1933 30.4542 30.1111 29.5229 29.1727L28.5022 28.1441L29.0119 27.2977C29.8196 25.9565 30.0935 24.9146 30.093 23.1849C30.0927 22.0021 30.017 21.4556 29.7428 20.6554C28.8145 17.9466 26.5396 15.9251 23.7617 15.3408C22.4819 15.0717 21.6491 15.072 20.4049 15.3423ZM7.17738 16.7721L6.08933 17.8271L5.65664 17.3756C5.16149 16.8589 4.60856 16.7896 4.38045 17.2157C4.15686 17.6334 4.14886 17.6165 5.00051 18.517C6.08088 19.6594 6.22631 19.6333 7.86293 18.0029C8.59992 17.2688 9.20294 16.5607 9.20294 16.4295C9.20294 16.1253 8.79846 15.7169 8.49718 15.7169C8.36984 15.7169 7.77588 16.1917 7.17738 16.7721ZM23.9691 16.9064C25.8559 17.4936 27.2577 18.7142 28.1089 20.5111C28.5584 21.4599 28.5895 21.6325 28.5895 23.1849C28.5895 24.7391 28.5588 24.9092 28.1065 25.8642C27.4356 27.2803 26.3178 28.4165 24.9123 29.1113C23.8095 29.6564 23.73 29.6722 22.11 29.6722C20.5486 29.6722 20.378 29.6416 19.4283 29.1917C15.2924 27.2324 14.2401 21.9938 17.3208 18.7002C19.0124 16.8919 21.6424 16.1822 23.9691 16.9064ZM21.2467 17.9997C19.9984 18.1815 19.9207 18.3754 21.0538 18.4813C24.0004 18.7563 26.5478 21.3342 26.8394 24.3357L26.9474 25.4479L27.1511 24.769C27.263 24.3956 27.3517 23.6488 27.3483 23.1095C27.3273 19.9064 24.4867 17.5276 21.2467 17.9997ZM10.5607 18.6589V19.3378H12.1924H13.824L14.112 18.772C14.2704 18.4609 14.4245 18.1553 14.4542 18.0931C14.4841 18.0309 13.6202 17.98 12.5345 17.98H10.5607V18.6589ZM7.21359 22.305L6.20761 23.3109L5.65392 22.8248C5.03748 22.2836 4.74434 22.2694 4.41575 22.7652C4.20559 23.0821 4.23969 23.1481 5.06177 24.0098C5.53926 24.5104 6.04271 24.9199 6.18075 24.9199C6.4846 24.9199 9.20294 22.1834 9.20294 21.8776C9.20294 21.5671 8.89124 21.299 8.53022 21.299C8.34812 21.299 7.80288 21.7156 7.21359 22.305ZM10.5607 24.1655V24.9199H11.8593C12.9814 24.9199 13.1454 24.8874 13.0662 24.6812C13.0158 24.5499 12.9746 24.2105 12.9746 23.9269V23.4112H11.7677H10.5607V24.1655ZM7.23969 27.7986L6.14982 28.867L5.65709 28.3894C5.08545 27.8354 4.55259 27.8244 4.35495 28.3624C4.24602 28.6588 4.34424 28.8365 5.00157 29.5316C6.08782 30.6802 6.24291 30.6525 7.87364 29.0218C8.60475 28.2907 9.20294 27.5827 9.20294 27.4486C9.20294 27.1538 8.80555 26.7303 8.52916 26.7303C8.41933 26.7303 7.83894 27.2111 7.23969 27.7986ZM10.5607 29.6722V30.3511H13.4393H16.3179L15.6646 29.6748L15.0113 28.9983L12.786 28.9959L10.5607 28.9933V29.6722Z" fill="#008181"/>
</svg>
