<svg xmlns="http://www.w3.org/2000/svg" width="29" height="28" viewBox="0 0 29 28" fill="none">
<path fill-rule="evenodd" clip-rule="evenodd" d="M13.0345 0.0268664C10.3014 0.366437 7.77981 1.41887 5.72081 3.07931C3.18375 5.12543 1.4475 7.99517 0.751461 11.2928C0.558334 12.2081 0.533887 12.5064 0.532492 13.964C0.530851 15.7546 0.622409 16.4568 1.04812 17.9179C2.37023 22.4549 5.85667 26.0206 10.3271 27.4076C11.9719 27.9179 12.5252 27.9935 14.5933 27.9899C16.6581 27.9863 17.3529 27.8827 19.0236 27.3293C23.1644 25.9576 26.4879 22.6281 27.8728 18.4639C29.3016 14.168 28.6243 9.61189 25.9993 5.862C25.3544 4.94076 23.7199 3.27867 22.8795 2.68978C21.4974 1.72111 20.3292 1.12623 18.8541 0.639882C17.4925 0.19095 16.605 0.0525459 14.8804 0.0203855C14.0231 0.00430532 13.1924 0.00725839 13.0345 0.0268664ZM22.5123 9.95687C22.1945 8.16311 21.0508 6.92584 19.2287 6.40471C18.7999 6.28214 18.2391 6.26146 14.8804 6.24473C12.7597 6.23423 10.7903 6.25736 10.504 6.29617C8.56528 6.55928 7.16827 7.74183 6.67914 9.5337C6.3545 10.7231 6.35499 17.8522 6.67988 19.0454C7.09164 20.5579 8.11249 21.6376 9.56873 22.1009C10.3071 22.3357 11.95 22.4512 14.5523 22.4512C15.4096 22.4512 16.7387 22.4179 17.5058 22.3771C19.5631 22.2677 20.4438 21.9445 21.3779 20.9557C22.3036 19.9758 22.5315 19.2585 22.6474 16.9585C22.7507 14.9105 22.6726 10.8619 22.5123 9.95687ZM10.3477 7.81214C9.05039 8.09403 8.29069 8.89755 8.01412 10.2808C7.87227 10.9899 7.87982 17.7314 8.02315 18.3942C8.26394 19.5075 8.89665 20.3077 9.80518 20.6476C10.5344 20.9204 12.0529 21.004 15.4137 20.9562C18.558 20.9116 18.9268 20.8715 19.6618 20.4947C20.0526 20.2944 20.5545 19.7924 20.7549 19.4017C21.1369 18.6567 21.1739 18.3082 21.216 15.0715C21.2744 10.5876 21.1523 9.58612 20.4466 8.76177C20.0355 8.28141 19.6117 8.03373 18.8811 7.84692C18.3084 7.7004 17.9649 7.68825 14.5597 7.69424C11.7711 7.69916 10.7342 7.72821 10.3477 7.81214ZM15.526 10.2727C17.4359 10.7701 18.6972 12.3655 18.6944 14.2802C18.6919 15.9564 17.8579 17.3016 16.3534 18.0555C15.5814 18.4424 14.4354 18.5627 13.5678 18.3481C12.1359 17.9938 10.904 16.7734 10.5384 15.3468C10.0068 13.2727 11.1545 11.1087 13.1576 10.4086C13.9782 10.1219 14.7719 10.0763 15.526 10.2727ZM12.1179 13.1253C12.4618 12.4608 12.987 11.9935 13.6812 11.7342C13.8724 11.6628 14.2262 11.6332 14.6753 11.6511C15.5352 11.6852 16.036 11.9145 16.5858 12.5261C17.7949 13.8708 17.336 16.0074 15.672 16.7802C15.0659 17.0618 14.1065 17.0742 13.5055 16.8083C12.9304 16.5538 12.3568 15.9771 12.0922 15.3875C11.889 14.9348 11.8704 14.8161 11.9027 14.1787C11.9287 13.6651 11.9876 13.3769 12.1179 13.1253ZM19.2078 10.8603C19.9728 10.5408 20.0709 9.61082 19.3872 9.16008C18.7526 8.74183 17.957 9.21776 17.957 10.0156C17.957 10.6157 18.659 11.0897 19.2078 10.8603Z" fill="white"/>
</svg>