<svg width="29" height="28" viewBox="0 0 29 28" fill="none" xmlns="http://www.w3.org/2000/svg">
<path id="image 7 (Traced)" fill-rule="evenodd" clip-rule="evenodd" d="M11.6653 0.258607C6.37602 1.41762 2.31701 5.30376 0.901473 10.5641C0.448766 12.2463 0.404247 15.5778 0.812743 17.2155C2.08981 22.3363 5.95003 26.2585 11.0514 27.6185C12.9649 28.1286 16.1263 28.1269 17.9593 27.6147C23.1276 26.1704 26.7775 22.4967 28.1126 17.3952C28.6156 15.473 28.6156 12.462 28.1124 10.5743C26.7845 5.59251 23.1021 1.86034 18.1025 0.429312C16.4449 -0.0451923 13.4176 -0.125479 11.6653 0.258607ZM11.2097 20.3887L11.1688 16.1288L11.128 11.8688L9.63125 11.8249L8.1345 11.781V16.0849V20.3887H9.67208H11.2097ZM15.1961 12.343V12.894L15.6521 12.5102C16.1893 12.0583 17.3658 11.7709 18.2066 11.8865C19.3057 12.0374 19.9453 12.412 20.3869 13.1631C20.7937 13.8551 20.8 13.9081 20.8528 17.1266L20.9066 20.3887H19.5864H18.2663V17.8509C18.2663 14.9616 18.1191 14.3365 17.3937 14.1451C16.9639 14.0317 16.8116 14.0358 16.16 14.1776C15.5418 14.3123 15.4308 14.7848 15.3496 17.6255L15.2728 20.312L14.0063 20.3565L12.7399 20.4011V16.1989C12.7399 13.8878 12.7859 11.9507 12.8423 11.8945C12.8984 11.8381 13.4511 11.7921 14.0704 11.7921H15.1961V12.343ZM11.044 9.5878C11.2542 8.95119 11.0786 8.42588 10.5047 7.9744C9.1133 6.88002 7.38767 8.73182 8.53195 10.0916C8.85923 10.4806 9.04284 10.564 9.5723 10.564C10.3649 10.564 10.822 10.2608 11.044 9.5878Z" fill="white"/>
</svg>
