<svg width="29" height="28" viewBox="0 0 29 28" fill="none" xmlns="http://www.w3.org/2000/svg">
<path id="image 7 (Traced)" fill-rule="evenodd" clip-rule="evenodd" d="M12.3228 0.0919558C6.30216 1.08804 1.6911 5.4207 0.500095 11.2008C0.194504 12.6841 0.186969 15.5064 0.485027 16.913C1.58242 22.093 5.40645 26.1325 10.6481 27.6489C11.6794 27.9473 12.2197 28 14.2443 28C16.2689 28 16.8092 27.9473 17.8405 27.6489C23.0992 26.1276 26.908 22.091 27.9972 16.8847C28.3028 15.4244 28.2985 12.7059 27.9885 11.2008C26.9078 5.95655 22.8592 1.73903 17.6279 0.407997C16.1888 0.0416904 13.569 -0.114332 12.3228 0.0919558ZM18.848 8.93267C18.6944 8.79371 18.3047 8.58588 17.9821 8.4709C17.1186 8.16301 16.5473 8.20267 15.6963 8.62984C14.7047 9.12758 14.2122 9.85804 14.1202 10.9671L14.0494 11.8216L13.3266 11.736C11.725 11.5463 9.22847 10.2617 8.3901 9.19598C8.03102 8.7396 7.8647 8.87348 7.69484 9.75551C7.54404 10.5389 7.73496 11.331 8.25099 12.063C8.7518 12.7736 8.74135 12.7822 7.80229 12.4285C7.63059 12.3638 7.60522 12.4665 7.67962 12.925C7.79537 13.6386 8.419 14.4794 9.15454 14.9142L9.70961 15.2423L9.21003 15.2904C8.93518 15.317 8.71045 15.3819 8.71045 15.4346C8.71045 15.8047 9.53253 16.6223 10.2857 17.0016L11.1695 17.4464L10.6613 17.7605C10.0466 18.1405 8.56749 18.5423 7.71744 18.5604L7.09642 18.5736L8.01872 19.0025C10.2804 20.0542 13.3055 20.0322 15.4385 18.9485C17.9237 17.6858 19.6668 15.0933 19.8876 12.3317C19.9707 11.2928 20.0042 11.2167 20.6592 10.5811C21.036 10.2156 21.3094 9.88202 21.2672 9.83975C21.2251 9.79748 20.9417 9.8316 20.638 9.91538C20.3101 10.0059 20.0855 10.0105 20.0855 9.9266C20.0855 9.84897 20.1373 9.78487 20.2008 9.78426C20.3682 9.78272 21.0678 8.71808 20.9674 8.6177C20.9208 8.57112 20.6861 8.63215 20.4457 8.75328C19.6582 9.15033 19.1512 9.2072 18.848 8.93267Z" fill="white"/>
</svg>
