<svg width="29" height="28" viewBox="0 0 29 28" fill="none" xmlns="http://www.w3.org/2000/svg">
<path id="image 7 (Traced)" fill-rule="evenodd" clip-rule="evenodd" d="M5.04271 3.9911C7.24988 1.87822 9.45643 0.770501 12.7759 0.108846C13.6863 -0.0726518 17.1701 0.144778 18.3117 0.454338C22.2833 1.5312 25.7044 4.36376 27.4354 8.00893C29.1595 11.6395 29.1987 16.2098 27.5371 19.8745C25.8294 23.6405 22.3407 26.5615 18.227 27.6693C17.2356 27.9363 16.5691 28 14.7721 28C12.1755 28 10.902 27.7273 8.79462 26.7197C7.13195 25.9249 5.88986 25.0295 4.62183 23.7119C2.08744 21.078 0.798828 17.8372 0.798828 14.0971C0.798828 10.0708 2.2152 6.69806 5.04271 3.9911ZM17.3953 7.32056C20.5357 8.55159 22.4092 11.7439 21.8624 14.9326C21.0991 19.3838 16.4406 22.0451 12.3234 20.3821L11.4565 20.032L9.62104 20.6143C8.61143 20.9346 7.73879 21.1973 7.68167 21.1981C7.62455 21.1989 7.85795 20.362 8.20037 19.3385C8.82256 17.4782 8.82272 17.4773 8.55262 16.92C7.55698 14.8658 7.66524 12.246 8.82778 10.2623C9.34311 9.38307 10.703 8.1155 11.637 7.6441C12.3272 7.29569 13.4932 6.9806 14.465 6.87972C15.1334 6.81031 16.6917 7.04478 17.3953 7.32056ZM9.64008 16.463C7.99123 13.2091 9.80161 9.20587 13.3792 8.19489C14.3422 7.92279 16.0431 8.03734 17.1133 8.44625C18.3394 8.91489 19.5479 10.0561 20.1812 11.3435C20.6481 12.2929 20.6837 12.475 20.6824 13.9035C20.681 15.2687 20.6332 15.5384 20.2576 16.306C19.7067 17.4313 18.5391 18.6046 17.426 19.1511C16.6217 19.5461 16.3861 19.5872 14.9257 19.5872C13.5024 19.5872 13.2116 19.5395 12.4458 19.1804L11.5784 18.7737L10.6945 19.0653C9.40299 19.4914 9.39608 19.4872 9.72545 18.4885C10.0886 17.3879 10.0868 17.3444 9.64008 16.463ZM13.6724 12.5238L13.3155 11.6793C13.0118 10.9605 12.8923 10.828 12.514 10.7888C12.0581 10.7418 11.7519 10.9762 11.4136 11.6308C10.9843 12.4619 11.4339 13.7515 12.623 15.0998C13.9259 16.5771 15.987 17.5514 17.1027 17.2171C17.7411 17.0258 18.3038 16.415 18.3038 15.9132C18.3038 15.6632 18.0904 15.4774 17.4323 15.1546L16.5605 14.7271L16.1192 15.1993C15.8765 15.4591 15.6441 15.6716 15.6027 15.6716C15.5614 15.6716 15.2713 15.538 14.9579 15.375C14.319 15.0422 13.6624 14.46 13.2969 13.9024C13.0704 13.5566 13.0751 13.4941 13.3627 13.0269L13.6724 12.5238Z" fill="white"/>
</svg>
